<?xml version="1.0" encoding="UTF-8" standalone="no"?>
<!DOCTYPE svg PUBLIC "-//W3C//DTD SVG 1.1//EN"
 "http://www.w3.org/Graphics/SVG/1.1/DTD/svg11.dtd">
<!-- Generated by graphviz version 2.40.1 (20161225.0304)
 -->
<!-- Title: G Pages: 1 -->
<svg width="407pt" height="44pt"
 viewBox="0.00 0.00 407.48 44.00" xmlns="http://www.w3.org/2000/svg" xmlns:xlink="http://www.w3.org/1999/xlink">
<g id="graph0" class="graph" transform="scale(1 1) rotate(0) translate(4 40)">
<title>G</title>
<polygon fill="#ffffff" stroke="transparent" points="-4,4 -4,-40 403.4787,-40 403.4787,4 -4,4"/>
<!-- sendInvoices -->
<g id="node1" class="node">
<title>sendInvoices</title>
<polygon fill="none" stroke="#000000" points="232.1903,-36 145.1903,-36 145.1903,0 232.1903,0 232.1903,-36"/>
<text text-anchor="middle" x="188.6903" y="-14.3" font-family="Times,serif" font-size="14.00" fill="#000000">sendInvoices</text>
</g>
<!-- ResponseEntity -->
<g id="node3" class="node">
<title>ResponseEntity</title>
<ellipse fill="none" stroke="#000000" cx="333.8345" cy="-18" rx="65.7887" ry="18"/>
<text text-anchor="middle" x="333.8345" y="-14.3" font-family="Times,serif" font-size="14.00" fill="#000000">ResponseEntity</text>
</g>
<!-- sendInvoices&#45;&gt;ResponseEntity -->
<g id="edge2" class="edge">
<title>sendInvoices&#45;&gt;ResponseEntity</title>
<path fill="none" stroke="#000000" d="M232.2383,-18C240.3407,-18 249.0209,-18 257.7689,-18"/>
<polygon fill="#000000" stroke="#000000" points="258.039,-21.5001 268.039,-18 258.0389,-14.5001 258.039,-21.5001"/>
</g>
<!-- HttpRequest -->
<g id="node2" class="node">
<title>HttpRequest</title>
<ellipse fill="none" stroke="#000000" cx="54.5952" cy="-18" rx="54.6905" ry="18"/>
<text text-anchor="middle" x="54.5952" y="-14.3" font-family="Times,serif" font-size="14.00" fill="#000000">HttpRequest</text>
</g>
<!-- HttpRequest&#45;&gt;sendInvoices -->
<g id="edge1" class="edge">
<title>HttpRequest&#45;&gt;sendInvoices</title>
<path fill="none" stroke="#000000" d="M109.5237,-18C117.9568,-18 126.6544,-18 135.0588,-18"/>
<polygon fill="#000000" stroke="#000000" points="135.1274,-21.5001 145.1274,-18 135.1274,-14.5001 135.1274,-21.5001"/>
</g>
</g>
</svg>
