<?xml version="1.0" encoding="UTF-8" standalone="no"?>
<!DOCTYPE svg PUBLIC "-//W3C//DTD SVG 1.1//EN"
 "http://www.w3.org/Graphics/SVG/1.1/DTD/svg11.dtd">
<!-- Generated by graphviz version 2.40.1 (20161225.0304)
 -->
<!-- Title: G Pages: 1 -->
<svg width="346pt" height="116pt"
 viewBox="0.00 0.00 345.94 116.00" xmlns="http://www.w3.org/2000/svg" xmlns:xlink="http://www.w3.org/1999/xlink">
<g id="graph0" class="graph" transform="scale(1 1) rotate(0) translate(4 112)">
<title>G</title>
<polygon fill="#ffffff" stroke="transparent" points="-4,4 -4,-112 341.9418,-112 341.9418,4 -4,4"/>
<!-- getCurrentIdentity -->
<g id="node1" class="node">
<title>getCurrentIdentity</title>
<polygon fill="none" stroke="#000000" points="243.5952,-36 127.5952,-36 127.5952,0 243.5952,0 243.5952,-36"/>
<text text-anchor="middle" x="185.5952" y="-14.3" font-family="Times,serif" font-size="14.00" fill="#000000">getCurrentIdentity</text>
</g>
<!-- Identity -->
<g id="node3" class="node">
<title>Identity</title>
<ellipse fill="none" stroke="#000000" cx="299.5952" cy="-18" rx="38.1938" ry="18"/>
<text text-anchor="middle" x="299.5952" y="-14.3" font-family="Times,serif" font-size="14.00" fill="#000000">Identity</text>
</g>
<!-- getCurrentIdentity&#45;&gt;Identity -->
<g id="edge2" class="edge">
<title>getCurrentIdentity&#45;&gt;Identity</title>
<path fill="none" stroke="#000000" d="M243.9311,-18C246.2278,-18 248.5245,-18 250.8212,-18"/>
<polygon fill="#000000" stroke="#000000" points="250.8913,-21.5001 260.8912,-18 250.8912,-14.5001 250.8913,-21.5001"/>
</g>
<!-- HttpRequest -->
<g id="node2" class="node">
<title>HttpRequest</title>
<ellipse fill="none" stroke="#000000" cx="54.5952" cy="-18" rx="54.6905" ry="18"/>
<text text-anchor="middle" x="54.5952" y="-14.3" font-family="Times,serif" font-size="14.00" fill="#000000">HttpRequest</text>
</g>
<!-- HttpRequest&#45;&gt;getCurrentIdentity -->
<g id="edge1" class="edge">
<title>HttpRequest&#45;&gt;getCurrentIdentity</title>
<path fill="none" stroke="#000000" d="M109.3491,-18C111.9986,-18 114.6481,-18 117.2976,-18"/>
<polygon fill="#000000" stroke="#000000" points="117.5171,-21.5001 127.5171,-18 117.517,-14.5001 117.5171,-21.5001"/>
</g>
<!-- sessionService -->
<g id="node4" class="node">
<title>sessionService</title>
<ellipse fill="none" stroke="#000000" cx="185.5952" cy="-90" rx="62.2891" ry="18"/>
<text text-anchor="middle" x="185.5952" y="-86.3" font-family="Times,serif" font-size="14.00" fill="#000000">sessionService</text>
</g>
<!-- sessionService&#45;&gt;getCurrentIdentity -->
<g id="edge3" class="edge">
<title>sessionService&#45;&gt;getCurrentIdentity</title>
<path fill="none" stroke="#000000" d="M185.5952,-71.8314C185.5952,-64.131 185.5952,-54.9743 185.5952,-46.4166"/>
<polygon fill="#000000" stroke="#000000" points="189.0953,-46.4132 185.5952,-36.4133 182.0953,-46.4133 189.0953,-46.4132"/>
</g>
</g>
</svg>
