<?xml version="1.0" encoding="UTF-8" standalone="no"?>
<!DOCTYPE svg PUBLIC "-//W3C//DTD SVG 1.1//EN"
 "http://www.w3.org/Graphics/SVG/1.1/DTD/svg11.dtd">
<!-- Generated by graphviz version 2.40.1 (20161225.0304)
 -->
<!-- Title: G Pages: 1 -->
<svg width="887pt" height="116pt"
 viewBox="0.00 0.00 887.09 116.00" xmlns="http://www.w3.org/2000/svg" xmlns:xlink="http://www.w3.org/1999/xlink">
<g id="graph0" class="graph" transform="scale(1 1) rotate(0) translate(4 112)">
<title>G</title>
<polygon fill="#ffffff" stroke="transparent" points="-4,4 -4,-112 883.0888,-112 883.0888,4 -4,4"/>
<!-- send -->
<g id="node1" class="node">
<title>send</title>
<polygon fill="none" stroke="#000000" points="533.3933,-36 479.3933,-36 479.3933,0 533.3933,0 533.3933,-36"/>
<text text-anchor="middle" x="506.3933" y="-14.3" font-family="Times,serif" font-size="14.00" fill="#000000">send</text>
</g>
<!-- Identity -->
<g id="node2" class="node">
<title>Identity</title>
<ellipse fill="none" stroke="#000000" cx="329.3933" cy="-18" rx="38.1938" ry="18"/>
<text text-anchor="middle" x="329.3933" y="-14.3" font-family="Times,serif" font-size="14.00" fill="#000000">Identity</text>
</g>
<!-- Identity&#45;&gt;send -->
<g id="edge1" class="edge">
<title>Identity&#45;&gt;send</title>
<path fill="none" stroke="#000000" d="M347.9882,-33.8103C358.2929,-41.5268 371.7533,-49.9939 385.3933,-54 417.8022,-63.5185 429.5196,-65.1807 461.3933,-54 468.533,-51.4955 475.3814,-47.3291 481.4876,-42.7013"/>
<polygon fill="#000000" stroke="#000000" points="483.8454,-45.293 489.3118,-36.2173 479.3788,-39.9032 483.8454,-45.293"/>
</g>
<!-- Quarter -->
<g id="node3" class="node">
<title>Quarter</title>
<ellipse fill="none" stroke="#000000" cx="423.3933" cy="-18" rx="37.8943" ry="18"/>
<text text-anchor="middle" x="423.3933" y="-14.3" font-family="Times,serif" font-size="14.00" fill="#000000">Quarter</text>
</g>
<!-- Quarter&#45;&gt;send -->
<g id="edge2" class="edge">
<title>Quarter&#45;&gt;send</title>
<path fill="none" stroke="#000000" d="M461.3269,-18C463.9455,-18 466.5641,-18 469.1827,-18"/>
<polygon fill="#000000" stroke="#000000" points="469.2831,-21.5001 479.2831,-18 469.283,-14.5001 469.2831,-21.5001"/>
</g>
<!-- InvoiceRepository -->
<g id="node4" class="node">
<title>InvoiceRepository</title>
<ellipse fill="none" stroke="#0000ff" cx="75.3933" cy="-90" rx="75.2868" ry="18"/>
<text text-anchor="middle" x="75.3933" y="-86.3" font-family="Times,serif" font-size="14.00" fill="#000000">InvoiceRepository</text>
</g>
<!-- InvoiceRepository&#45;&gt;send -->
<g id="edge3" class="edge">
<title>InvoiceRepository&#45;&gt;send</title>
<path fill="none" stroke="#000000" d="M130.5778,-77.5353C140.4749,-75.5223 150.7172,-73.5828 160.3933,-72 294.0694,-50.1329 335.5297,-74.421 469.4739,-35.6807"/>
<polygon fill="#000000" stroke="#000000" points="470.6832,-38.973 479.2803,-32.781 468.6983,-32.2603 470.6832,-38.973"/>
</g>
<!-- AccountRepository -->
<g id="node5" class="node">
<title>AccountRepository</title>
<ellipse fill="none" stroke="#0000ff" cx="248.3933" cy="-90" rx="79.0865" ry="18"/>
<text text-anchor="middle" x="248.3933" y="-86.3" font-family="Times,serif" font-size="14.00" fill="#000000">AccountRepository</text>
</g>
<!-- AccountRepository&#45;&gt;send -->
<g id="edge7" class="edge">
<title>AccountRepository&#45;&gt;send</title>
<path fill="none" stroke="#000000" d="M305.8063,-77.576C356.8693,-66.2694 428.584,-49.6998 469.6529,-35.793"/>
<polygon fill="#000000" stroke="#000000" points="470.9092,-39.061 479.1578,-32.4118 468.5631,-32.4659 470.9092,-39.061"/>
</g>
<!-- CompanyRepository -->
<g id="node6" class="node">
<title>CompanyRepository</title>
<ellipse fill="none" stroke="#0000ff" cx="429.3933" cy="-90" rx="83.6854" ry="18"/>
<text text-anchor="middle" x="429.3933" y="-86.3" font-family="Times,serif" font-size="14.00" fill="#000000">CompanyRepository</text>
</g>
<!-- CompanyRepository&#45;&gt;send -->
<g id="edge6" class="edge">
<title>CompanyRepository&#45;&gt;send</title>
<path fill="none" stroke="#000000" d="M448.427,-72.2022C457.7961,-63.4416 469.2523,-52.7293 479.4987,-43.1482"/>
<polygon fill="#000000" stroke="#000000" points="482.1299,-45.4796 487.0437,-36.0931 477.349,-40.3666 482.1299,-45.4796"/>
</g>
<!-- I18nService -->
<g id="node7" class="node">
<title>I18nService</title>
<ellipse fill="none" stroke="#00ff00" cx="584.3933" cy="-90" rx="53.0913" ry="18"/>
<text text-anchor="middle" x="584.3933" y="-86.3" font-family="Times,serif" font-size="14.00" fill="#000000">I18nService</text>
</g>
<!-- I18nService&#45;&gt;send -->
<g id="edge4" class="edge">
<title>I18nService&#45;&gt;send</title>
<path fill="none" stroke="#000000" d="M565.9084,-72.937C556.2656,-64.0359 544.2836,-52.9756 533.6036,-43.1172"/>
<polygon fill="#000000" stroke="#000000" points="535.8311,-40.4102 526.1091,-36.1992 531.0831,-45.5538 535.8311,-40.4102"/>
</g>
<!-- MailSender -->
<g id="node8" class="node">
<title>MailSender</title>
<ellipse fill="none" stroke="#ff0000" cx="707.3933" cy="-90" rx="51.9908" ry="18"/>
<text text-anchor="middle" x="707.3933" y="-86.3" font-family="Times,serif" font-size="14.00" fill="#000000">MailSender</text>
</g>
<!-- MailSender&#45;&gt;send -->
<g id="edge8" class="edge">
<title>MailSender&#45;&gt;send</title>
<path fill="none" stroke="#000000" d="M670.9937,-76.9613C634.8009,-63.9967 579.5724,-44.2134 543.228,-31.1945"/>
<polygon fill="#000000" stroke="#000000" points="544.1038,-27.7905 533.5092,-27.7132 541.7432,-34.3805 544.1038,-27.7905"/>
</g>
<!-- CsvBuilder -->
<g id="node9" class="node">
<title>CsvBuilder</title>
<ellipse fill="none" stroke="#000000" cx="828.3933" cy="-90" rx="50.8918" ry="18"/>
<text text-anchor="middle" x="828.3933" y="-86.3" font-family="Times,serif" font-size="14.00" fill="#000000">CsvBuilder</text>
</g>
<!-- CsvBuilder&#45;&gt;send -->
<g id="edge5" class="edge">
<title>CsvBuilder&#45;&gt;send</title>
<path fill="none" stroke="#000000" d="M790.1235,-77.9707C782.9346,-75.8672 775.458,-73.784 768.3933,-72 688.9851,-51.947 594.6509,-33.8966 543.6373,-24.6057"/>
<polygon fill="#000000" stroke="#000000" points="544.1932,-21.1495 533.7296,-22.8124 542.9463,-28.0376 544.1932,-21.1495"/>
</g>
</g>
</svg>
