<?xml version="1.0" encoding="UTF-8" standalone="no"?>
<!DOCTYPE svg PUBLIC "-//W3C//DTD SVG 1.1//EN"
 "http://www.w3.org/Graphics/SVG/1.1/DTD/svg11.dtd">
<!-- Generated by graphviz version 2.40.1 (20161225.0304)
 -->
<!-- Title: G Pages: 1 -->
<svg width="371pt" height="116pt"
 viewBox="0.00 0.00 371.24 116.00" xmlns="http://www.w3.org/2000/svg" xmlns:xlink="http://www.w3.org/1999/xlink">
<g id="graph0" class="graph" transform="scale(1 1) rotate(0) translate(4 112)">
<title>G</title>
<polygon fill="#ffffff" stroke="transparent" points="-4,4 -4,-112 367.2393,-112 367.2393,4 -4,4"/>
<!-- sendInvoices -->
<g id="node1" class="node">
<title>sendInvoices</title>
<polygon fill="none" stroke="#000000" points="214.0952,-36 127.0952,-36 127.0952,0 214.0952,0 214.0952,-36"/>
<text text-anchor="middle" x="170.5952" y="-14.3" font-family="Times,serif" font-size="14.00" fill="#000000">sendInvoices</text>
</g>
<!-- ResponseEntity -->
<g id="node3" class="node">
<title>ResponseEntity</title>
<ellipse fill="none" stroke="#000000" cx="297.5952" cy="-18" rx="65.7887" ry="18"/>
<text text-anchor="middle" x="297.5952" y="-14.3" font-family="Times,serif" font-size="14.00" fill="#000000">ResponseEntity</text>
</g>
<!-- sendInvoices&#45;&gt;ResponseEntity -->
<g id="edge2" class="edge">
<title>sendInvoices&#45;&gt;ResponseEntity</title>
<path fill="none" stroke="#000000" d="M214.2514,-18C216.7236,-18 219.1959,-18 221.6681,-18"/>
<polygon fill="#000000" stroke="#000000" points="221.8318,-21.5001 231.8317,-18 221.8317,-14.5001 221.8318,-21.5001"/>
</g>
<!-- HttpRequest -->
<g id="node2" class="node">
<title>HttpRequest</title>
<ellipse fill="none" stroke="#000000" cx="54.5952" cy="-18" rx="54.6905" ry="18"/>
<text text-anchor="middle" x="54.5952" y="-14.3" font-family="Times,serif" font-size="14.00" fill="#000000">HttpRequest</text>
</g>
<!-- HttpRequest&#45;&gt;sendInvoices -->
<g id="edge1" class="edge">
<title>HttpRequest&#45;&gt;sendInvoices</title>
<path fill="none" stroke="#000000" d="M109.4233,-18C111.7531,-18 114.0829,-18 116.4126,-18"/>
<polygon fill="#000000" stroke="#000000" points="116.6279,-21.5001 126.6279,-18 116.6278,-14.5001 116.6279,-21.5001"/>
</g>
<!-- InvoiceSendingService -->
<g id="node4" class="node">
<title>InvoiceSendingService</title>
<ellipse fill="none" stroke="#000000" cx="170.5952" cy="-90" rx="92.0841" ry="18"/>
<text text-anchor="middle" x="170.5952" y="-86.3" font-family="Times,serif" font-size="14.00" fill="#000000">InvoiceSendingService</text>
</g>
<!-- InvoiceSendingService&#45;&gt;sendInvoices -->
<g id="edge3" class="edge">
<title>InvoiceSendingService&#45;&gt;sendInvoices</title>
<path fill="none" stroke="#000000" d="M170.5952,-71.8314C170.5952,-64.131 170.5952,-54.9743 170.5952,-46.4166"/>
<polygon fill="#000000" stroke="#000000" points="174.0953,-46.4132 170.5952,-36.4133 167.0953,-46.4133 174.0953,-46.4132"/>
</g>
</g>
</svg>
